<svg id="SvgjsSvg1026" width="288" height="288" xmlns="http://www.w3.org/2000/svg" version="1.1" xmlns:xlink="http://www.w3.org/1999/xlink" xmlns:svgjs="http://svgjs.com/svgjs"><defs id="SvgjsDefs1027"></defs><g id="SvgjsG1028" transform="matrix(0.9167,0,0,0.9167,11.995023958587666,11.995201271057141)"><!--?xml version="1.0" encoding="UTF-8"?--><svg xmlns="http://www.w3.org/2000/svg" xmlns:xlink="http://www.w3.org/1999/xlink" viewBox="0 0 50 50" version="1.1" width="288" height="288"><path d="M45.273 2.324A.996.996 0 0 0 44.535 2H5.465a.996.996 0 0 0-.996 1.09l3.52 39.426c.034.414.324.757.722.875l16.012 4.57c.086.027.18.039.273.039a.926.926 0 0 0 .274-.04l16.023-4.57c.398-.117.684-.46.723-.874L45.53 3.09a.985.985 0 0 0-.258-.766zm-8.425 13.594H18.035l.45 5.09h17.91L35.05 36.05 24.992 39.09l-.097-.031-9.942-3.012-.543-6.129h4.871l.211 2.379 5.559 1.164 5.457-1.164.582-6.438H14.047l-1.324-14.804H37.28z" id="surface1" fill="#ffffff" class="color000 svgShape"></path><metadata><rdf:rdf xmlns:rdf="http://www.w3.org/1999/02/22-rdf-syntax-ns#" xmlns:rdfs="http://www.w3.org/2000/01/rdf-schema#" xmlns:dc="http://purl.org/dc/elements/1.1/"><rdf:description about="https://iconscout.com/legal#licenses" dc:title="html,filled" dc:description="html,filled" dc:publisher="Iconscout" dc:date="2017-12-09" dc:format="image/svg+xml" dc:language="en"><dc:creator><rdf:bag><rdf:li>Icons8</rdf:li></rdf:bag></dc:creator></rdf:description></rdf:rdf></metadata></svg></g></svg>