<svg id="SvgjsSvg1001" width="288" height="288" xmlns="http://www.w3.org/2000/svg" version="1.1" xmlns:xlink="http://www.w3.org/1999/xlink" xmlns:svgjs="http://svgjs.com/svgjs"><defs id="SvgjsDefs1002"></defs><g id="SvgjsG1008" transform="matrix(0.9167,0,0,0.9167,11.995200000000011,11.995200000000011)"><!--?xml version="1.0" encoding="UTF-8" standalone="no"?--><svg xmlns="http://www.w3.org/2000/svg" xmlns:xlink="http://www.w3.org/1999/xlink" width="288" height="288" viewBox="0 0 20 20" version="1.1"><title>javascript [#155]</title><g id="Page-1" stroke="none" stroke-width="1" fill="none" fill-rule="evenodd"><g id="Dribbble-Light-Preview" transform="translate(-420.000000, -7479.000000)" fill="#ffffff" class="color000 svgShape"><g id="icons" transform="translate(56.000000, 160.000000)" fill="#ffffff" class="color000 svgShape"><path d="M379.328 7337.432c-1.745 0-2.873-.832-3.423-1.92l1.53-.886c.403.658.926 1.141 1.853 1.141.778 0 1.275-.389 1.275-.926 0-.808-1.078-1.124-1.839-1.45-1.356-.577-2.256-1.302-2.256-2.833 0-1.409 1.074-2.483 2.753-2.483 1.194 0 2.054.416 2.671 1.503l-1.463.94c-.322-.577-.671-.805-1.208-.805-.551 0-.9.349-.9.805 0 .564.349.792 1.155 1.141 1.689.724 2.967 1.293 2.967 3.155 0 1.692-1.329 2.618-3.115 2.618zm-4.328-2.833c0 1.947-1.199 2.976-2.864 2.976-1.504 0-2.405-.575-2.848-1.575h-.026l1.529-1.069c.295.523.561.894 1.205.894.618 0 1.004-.313 1.004-1.252V7328h2v6.599zM364 7339h20v-20h-20v20z" id="javascript-[#155]" fill="#ffffff" class="color000 svgShape"></path></g></g></g><metadata><rdf:rdf xmlns:rdf="http://www.w3.org/1999/02/22-rdf-syntax-ns#" xmlns:rdfs="http://www.w3.org/2000/01/rdf-schema#" xmlns:dc="http://purl.org/dc/elements/1.1/"><rdf:description about="https://iconscout.com/legal#licenses" dc:title="javascript" dc:description="javascript" dc:publisher="Iconscout" dc:date="2017-09-15" dc:format="image/svg+xml" dc:language="en"><dc:creator><rdf:bag><rdf:li>Alexandru Stoica</rdf:li></rdf:bag></dc:creator></rdf:description></rdf:rdf></metadata></svg></g></svg>